<?xml version="1.0" encoding="UTF-8"?>
<svg xmlns="http://www.w3.org/2000/svg" xmlns:xlink="http://www.w3.org/1999/xlink" viewBox="0 0 497.88 319.54">
  <defs>
    <style>
      .cls-1 {
        fill: url(#Degradado_sin_nombre_2);
      }

      .cls-1, .cls-2, .cls-3 {
        mix-blend-mode: multiply;
        opacity: .46;
      }

      .cls-2 {
        fill: url(#Degradado_sin_nombre_2-2);
      }

      .cls-4 {
        fill: url(#Gradiente_sem_nome_19);
      }

      .cls-5 {
        isolation: isolate;
      }

      .cls-3 {
        fill: url(#Degradado_sin_nombre_2-3);
      }

      .cls-6 {
        fill: url(#Gradiente_sem_nome_18);
      }
    </style>
    <linearGradient id="Gradiente_sem_nome_19" data-name="Gradiente sem nome 19" x1="31.84" y1="156.44" x2="497.87" y2="156.44" gradientUnits="userSpaceOnUse">
      <stop offset="0" stop-color="#df90ba"/>
      <stop offset=".46" stop-color="#fff"/>
      <stop offset="1" stop-color="#66b6e7"/>
    </linearGradient>
    <linearGradient id="Gradiente_sem_nome_18" data-name="Gradiente sem nome 18" x1="218.45" y1="236.9" x2="282.77" y2="236.9" gradientUnits="userSpaceOnUse">
      <stop offset="0" stop-color="#df90ba"/>
      <stop offset=".51" stop-color="#fff"/>
      <stop offset="1" stop-color="#66b6e7"/>
    </linearGradient>
    <linearGradient id="Degradado_sin_nombre_2" data-name="Degradado sin nombre 2" x1="249.1" y1="203.2" x2="249.1" y2="220.4" gradientUnits="userSpaceOnUse">
      <stop offset="0" stop-color="#191a36"/>
      <stop offset="1" stop-color="#191a36" stop-opacity="0"/>
    </linearGradient>
    <linearGradient id="Degradado_sin_nombre_2-2" data-name="Degradado sin nombre 2" x1="147.29" y1="197.06" x2="152.58" y2="207.3" xlink:href="#Degradado_sin_nombre_2"/>
    <linearGradient id="Degradado_sin_nombre_2-3" data-name="Degradado sin nombre 2" x1="349.04" y1="193.63" x2="347.06" y2="208.16" xlink:href="#Degradado_sin_nombre_2"/>
  </defs>
  <g class="cls-5">
    <g id="Camada_2">
      <g id="Isolation_Mode">
        <g>
          <g>
            <path class="cls-4" d="M497.75,301.85l-20.44-126.74c-.17-1.12-.55-2.2-1.12-3.17v-.02c-.76-1.33-1.84-2.48-3.15-3.32l-22.45-14.33c16.87-12.78,27.15-32.87,27.15-54.68,0-18.86-7.89-37.08-21.63-50.01-13.95-13.1-32.19-19.66-51.34-18.47-35.19,2.18-63.42,31.53-64.27,66.81-.55,22.52,9.76,43.26,27.11,56.36l-11.22,7.17,17.65,11.32,16.95-10.81c2.96-1.88,4.66-5.27,4.36-8.8-.27-3.51-2.5-6.58-5.74-7.98-18.77-8.02-30.56-26.41-30.07-46.81.61-25.48,20.99-46.66,46.39-48.25,13.86-.87,27.05,3.89,37.12,13.35,10.07,9.48,15.64,22.31,15.64,36.12,0,19.87-11.81,37.75-30.09,45.58-3.24,1.4-5.46,4.47-5.73,7.98-.3,3.53,1.4,6.92,4.36,8.8l31.98,20.4,16.99,105.35,2.77,17.18c.76,4.68,4.8,8,9.4,8,.49,0,1.02-.02,1.52-.11,5.19-.85,8.72-5.74,7.87-10.92ZM157.42,99.58c0-18.86-7.89-37.08-21.65-50.01-13.92-13.1-32.17-19.66-51.34-18.47-35.17,2.18-63.4,31.53-64.25,66.81-.55,22.52,9.73,43.26,27.11,56.36l-22.45,14.33c-2.29,1.46-3.85,3.83-4.27,6.52L.12,301.85c-.83,5.18,2.71,10.07,7.89,10.92,5.18.83,10.07-2.71,10.92-7.89l1.63-10.12,18.12-112.41,32-20.4c2.96-1.88,4.66-5.27,4.36-8.8-.3-3.51-2.5-6.58-5.74-7.98-18.77-8.02-30.56-26.41-30.07-46.81.61-25.48,20.99-46.66,46.39-48.25,13.86-.87,27.05,3.89,37.12,13.35,10.07,9.48,15.64,22.31,15.64,36.12,0,19.87-11.81,37.75-30.09,45.58-3.24,1.4-5.46,4.47-5.74,7.98-.3,3.53,1.38,6.92,4.36,8.8l16.89,10.77,17.63-11.34-11.15-7.11c16.87-12.78,27.15-32.87,27.15-54.68ZM392.89,193.43l-25.67-16.34-17.71-11.28-63.23-40.27c19.05-12.36,30.96-33.63,30.96-57.27,0-18.75-7.85-36.89-21.52-49.75C281.83,5.49,263.66-1.05,244.59.14c-33.39,2.07-60.76,28.74-63.68,62.03-2.26,25.9,9.88,49.92,30.69,63.4l-57.39,36.55-5.82,3.7-17.71,11.28-7.22,4.59-18.45,11.75c-2.73,1.76-4.4,4.78-4.4,8.04v47.89c0,17.48,14.22,31.7,31.68,31.7,8.91,0,17.46-3.79,23.45-10.37,5.99-6.58,8.95-15.45,8.11-24.32l-4.08-43.02-1.19-12.36-18.03,11.49,1.08,11.45,3.26,34.24c.34,3.6-.8,7.03-3.24,9.69-2.43,2.67-5.73,4.15-9.35,4.15-6.96,0-12.63-5.67-12.63-12.66v-42.66l14.18-9.04,5.9-3.75,18.03-11.49,11.7-7.45,66.87-42.6c3.11-1.99,4.8-5.61,4.32-9.27-.49-3.66-3.05-6.73-6.58-7.85-22.16-6.98-36.21-28.15-34.18-51.42,2.1-23.98,21.82-43.19,45.88-44.7,13.78-.85,26.88,3.85,36.89,13.27,10.03,9.42,15.53,22.16,15.53,35.87,0,21.63-13.82,40.51-34.39,46.98-3.53,1.12-6.09,4.19-6.58,7.85-.49,3.66,1.21,7.28,4.32,9.27l47.15,30.03,31.45,20.02,18.03,11.49,7.79,4.95,12.3,7.83v42.66c0,6.98-5.67,12.66-12.66,12.66-3.62,0-6.92-1.48-9.35-4.15-2.43-2.67-3.58-6.12-3.24-9.69l3.05-32.04,1.29-13.59-18.03-11.47-1.38,14.45-3.89,40.84c-.85,8.87,2.12,17.71,8.1,24.32,5.99,6.58,14.54,10.37,23.47,10.37,17.46,0,31.68-14.22,31.68-31.7v-47.89c0-3.26-1.67-6.29-4.4-8.04Z"/>
            <path class="cls-6" d="M282.49,284.03l-12.1-63.04-3.87-20.1c5.67-4.97,9.06-12.23,9.06-19.98,0-14.69-11.94-26.64-26.62-26.64s-26.62,11.96-26.62,26.64c0,7.75,3.39,15,9.06,19.98l-3.58,18.64-12.4,64.5c-.59,3.11.38,6.31,2.62,8.53l24.19,24.19c1.86,1.86,4.3,2.79,6.73,2.79s4.87-.93,6.73-2.79l24.19-24.19c2.24-2.22,3.22-5.42,2.62-8.53ZM248.95,172.29c4.76,0,8.63,3.85,8.63,8.63s-3.87,8.63-8.63,8.63-8.63-3.87-8.63-8.63,3.85-8.63,8.63-8.63ZM248.95,296.56l-13.88-13.88,11.39-59.28,2.5-13.04,2.54,13.25,11.34,59.06-13.88,13.88Z"/>
          </g>
          <path class="cls-1" d="M270.39,220.99c-4.85,1.42-11.26,2.67-18.9,2.62l-2.54-13.25-2.5,13.04c-5.69-.44-11.94-1.61-18.64-3.87l3.58-18.64s17.71,12.81,35.13,0l3.87,20.1Z"/>
          <polygon class="cls-2" points="158.56 191 159.75 203.36 141.61 213.94 140.53 202.49 158.56 191"/>
          <polygon class="cls-3" points="339.31 191.09 357.34 202.56 356.05 216.14 337.94 205.54 339.31 191.09"/>
        </g>
      </g>
    </g>
  </g>
</svg>