<?xml version="1.0" encoding="UTF-8"?>
<svg id="Camada_1" data-name="Camada 1" xmlns="http://www.w3.org/2000/svg" xmlns:xlink="http://www.w3.org/1999/xlink" viewBox="0 0 170 162">
  <defs>
    <style>
      .cls-1 {
        fill: url(#Gradiente_sem_nome_5);
      }

      .cls-1, .cls-2, .cls-3, .cls-4 {
        isolation: isolate;
      }

      .cls-1, .cls-2, .cls-4 {
        mix-blend-mode: multiply;
        opacity: .46;
      }

      .cls-5 {
        fill: url(#Gradiente_sem_nome_2);
      }

      .cls-2 {
        fill: url(#Gradiente_sem_nome_5-2);
      }

      .cls-4 {
        fill: url(#Gradiente_sem_nome_5-3);
      }

      .cls-6 {
        fill: #0080a6;
      }

      .cls-7 {
        fill: url(#Gradiente_sem_nome_3);
      }
    </style>
    <linearGradient id="Gradiente_sem_nome_3" data-name="Gradiente sem nome 3" x1="26.39" y1="83.9" x2="152.2" y2="83.9" gradientTransform="translate(0 164) scale(1 -1)" gradientUnits="userSpaceOnUse">
      <stop offset="0" stop-color="#df90ba"/>
      <stop offset=".46" stop-color="#fff"/>
      <stop offset="1" stop-color="#69b6e6"/>
    </linearGradient>
    <linearGradient id="Gradiente_sem_nome_2" data-name="Gradiente sem nome 2" x1="76.77" y1="62.18" x2="94.13" y2="62.18" gradientTransform="translate(0 164) scale(1 -1)" gradientUnits="userSpaceOnUse">
      <stop offset="0" stop-color="#df90ba"/>
      <stop offset=".51" stop-color="#fff"/>
      <stop offset="1" stop-color="#69b6e6"/>
    </linearGradient>
    <linearGradient id="Gradiente_sem_nome_5" data-name="Gradiente sem nome 5" x1="85.04" y1="71.28" x2="85.04" y2="66.63" gradientTransform="translate(0 164) scale(1 -1)" gradientUnits="userSpaceOnUse">
      <stop offset="0" stop-color="#191b36"/>
      <stop offset="1" stop-color="#191b36" stop-opacity="0"/>
    </linearGradient>
    <linearGradient id="Gradiente_sem_nome_5-2" data-name="Gradiente sem nome 5" x1="57.56" y1="72.93" x2="58.99" y2="70.17" xlink:href="#Gradiente_sem_nome_5"/>
    <linearGradient id="Gradiente_sem_nome_5-3" data-name="Gradiente sem nome 5" x1="112.02" y1="73.86" x2="111.49" y2="69.94" xlink:href="#Gradiente_sem_nome_5"/>
  </defs>
  <rect class="cls-6" width="170" height="162"/>
  <g class="cls-3">
    <g id="Camada_2" data-name="Camada 2">
      <g id="Isolation_Mode" data-name="Isolation Mode">
        <g>
          <g>
            <path class="cls-7" d="M152.17,119.35l-5.52-34.21c-.05-.3-.15-.59-.3-.86h0c-.21-.36-.5-.67-.85-.9l-6.06-3.87c4.55-3.45,7.33-8.87,7.33-14.76,0-5.09-2.13-10.01-5.84-13.5-3.77-3.54-8.69-5.31-13.86-4.99-9.5.59-17.12,8.51-17.35,18.04-.15,6.08,2.63,11.68,7.32,15.21l-3.03,1.94,4.76,3.06,4.58-2.92c.8-.51,1.26-1.42,1.18-2.38-.07-.95-.67-1.78-1.55-2.15-5.07-2.17-8.25-7.13-8.12-12.64.16-6.88,5.67-12.6,12.52-13.03,3.74-.23,7.3,1.05,10.02,3.6,2.72,2.56,4.22,6.02,4.22,9.75,0,5.36-3.19,10.19-8.12,12.3-.87.38-1.47,1.21-1.55,2.15-.08.95.38,1.87,1.18,2.38l8.63,5.51,4.59,28.44.75,4.64c.21,1.26,1.3,2.16,2.54,2.16.13,0,.28,0,.41-.03,1.4-.23,2.35-1.55,2.12-2.95h0ZM60.29,64.75c0-5.09-2.13-10.01-5.84-13.5-3.76-3.54-8.68-5.31-13.86-4.99-9.49.59-17.11,8.51-17.34,18.04-.15,6.08,2.63,11.68,7.32,15.21l-6.06,3.87c-.62.39-1.04,1.03-1.15,1.76l-5.52,34.21c-.22,1.4.73,2.72,2.13,2.95,1.4.22,2.72-.73,2.95-2.13l.44-2.73,4.89-30.35,8.64-5.51c.8-.51,1.26-1.42,1.18-2.38-.08-.95-.67-1.78-1.55-2.15-5.07-2.17-8.25-7.13-8.12-12.64.16-6.88,5.67-12.6,12.52-13.03,3.74-.23,7.3,1.05,10.02,3.6,2.72,2.56,4.22,6.02,4.22,9.75,0,5.36-3.19,10.19-8.12,12.3-.87.38-1.47,1.21-1.55,2.15-.08.95.37,1.87,1.18,2.38l4.56,2.91,4.76-3.06-3.01-1.92c4.55-3.45,7.33-8.87,7.33-14.76h0ZM123.86,90.09l-6.93-4.41-4.78-3.05-17.07-10.87c5.14-3.34,8.36-9.08,8.36-15.46,0-5.06-2.12-9.96-5.81-13.43-3.75-3.52-8.65-5.28-13.8-4.96-9.01.56-16.4,7.76-17.19,16.75-.61,6.99,2.67,13.48,8.28,17.11l-15.49,9.87-1.57,1-4.78,3.05-1.95,1.24-4.98,3.17c-.74.48-1.19,1.29-1.19,2.17v12.93c0,4.72,3.84,8.56,8.55,8.56,2.41,0,4.71-1.02,6.33-2.8,1.62-1.78,2.42-4.17,2.19-6.57l-1.1-11.61-.32-3.34-4.87,3.1.29,3.09.88,9.24c.09.97-.22,1.9-.87,2.62-.66.72-1.55,1.12-2.52,1.12-1.88,0-3.41-1.53-3.41-3.42v-11.52l3.83-2.44,1.59-1.01,4.87-3.1,3.16-2.01,18.05-11.5c.84-.54,1.3-1.51,1.17-2.5-.13-.99-.82-1.82-1.78-2.12-5.98-1.88-9.77-7.6-9.23-13.88.57-6.47,5.89-11.66,12.39-12.07,3.72-.23,7.26,1.04,9.96,3.58,2.71,2.54,4.19,5.98,4.19,9.68,0,5.84-3.73,10.94-9.28,12.68-.95.3-1.64,1.13-1.78,2.12-.13.99.33,1.97,1.17,2.5l12.73,8.11,8.49,5.4,4.87,3.1,2.1,1.34,3.32,2.11v11.52c0,1.88-1.53,3.42-3.42,3.42-.98,0-1.87-.4-2.52-1.12-.66-.72-.97-1.65-.87-2.62l.82-8.65.35-3.67-4.87-3.1-.37,3.9-1.05,11.02c-.23,2.39.57,4.78,2.19,6.57,1.62,1.78,3.93,2.8,6.34,2.8,4.71,0,8.55-3.84,8.55-8.56v-12.93c0-.88-.45-1.7-1.19-2.17h0Z"/>
            <path class="cls-5" d="M94.06,114.54l-3.27-17.02-1.04-5.43c1.53-1.34,2.45-3.3,2.45-5.39,0-3.97-3.22-7.19-7.19-7.19s-7.19,3.23-7.19,7.19c0,2.09.92,4.05,2.45,5.39l-.97,5.03-3.35,17.41c-.16.84.1,1.7.71,2.3l6.53,6.53c.5.5,1.16.75,1.82.75s1.31-.25,1.82-.75l6.53-6.53c.6-.6.87-1.46.71-2.3h0ZM85,84.38c1.28,0,2.33,1.04,2.33,2.33s-1.04,2.33-2.33,2.33-2.33-1.04-2.33-2.33,1.04-2.33,2.33-2.33h0ZM85,117.93l-3.75-3.75,3.07-16,.67-3.52.69,3.58,3.06,15.94-3.75,3.75h0Z"/>
          </g>
          <path class="cls-1" d="M90.79,97.53c-1.31.38-3.04.72-5.1.71l-.69-3.58-.67,3.52c-1.54-.12-3.22-.43-5.03-1.04l.97-5.03s4.78,3.46,9.48,0l1.04,5.43Z"/>
          <polygon class="cls-2" points="60.6 89.43 60.92 92.77 56.03 95.62 55.73 92.53 60.6 89.43"/>
          <polygon class="cls-4" points="109.39 89.45 114.26 92.55 113.91 96.22 109.02 93.36 109.39 89.45"/>
        </g>
      </g>
    </g>
  </g>
</svg>